<svg width="53" height="52" viewBox="0 0 53 52" fill="none" xmlns="http://www.w3.org/2000/svg">
<g clip-path="url(#clip0_776_1999)">
<path d="M49.9836 44.7018H2.2233C-0.468941 44.7018 -0.470293 40.6738 2.2233 40.6738H49.9836C52.6759 40.6738 52.6772 44.7018 49.9836 44.7018Z" fill="#28B8F8"/>
<path d="M49.9837 44.7018H26.1035V40.6738H49.9837C52.6759 40.6738 52.6773 44.7018 49.9837 44.7018Z" fill="#D1D8DF"/>
<path d="M49.7794 27.3111H2.01918C-0.67306 27.3111 -0.67306 23.2849 2.01918 23.2849H49.7794C52.473 23.2849 52.473 27.3111 49.7794 27.3111Z" fill="#28B8F8"/>
<path d="M49.7793 27.3111H39.4106V23.2849H49.7793C52.4729 23.2849 52.4729 27.3111 49.7793 27.3111Z" fill="#D1D8DF"/>
<path d="M49.7794 10.122H2.01918C-0.67306 10.122 -0.67306 6.09424 2.01918 6.09424H49.7794C52.473 6.09424 52.473 10.122 49.7794 10.122Z" fill="#28B8F8"/>
<path d="M49.7793 10.122H12.7959V6.09424H49.7793C52.4729 6.09424 52.4729 10.122 49.7793 10.122Z" fill="#D1D8DF"/>
<path d="M39.3771 31.8113C42.899 31.8113 45.7541 28.9856 45.7541 25.4999C45.7541 22.0142 42.899 19.1885 39.3771 19.1885C35.8551 19.1885 33 22.0142 33 25.4999C33 28.9856 35.8551 31.8113 39.3771 31.8113Z" fill="#5E63F1"/>
<path d="M24.3771 49C27.899 49 30.7541 46.1743 30.7541 42.6886C30.7541 39.2029 27.899 36.3772 24.3771 36.3772C20.8551 36.3772 18 39.2029 18 42.6886C18 46.1743 20.8551 49 24.3771 49Z" fill="#5E63F1"/>
<path d="M15.377 14.6226C18.899 14.6226 21.7541 11.797 21.7541 8.31132C21.7541 4.82568 18.899 2 15.377 2C11.8551 2 9 4.82568 9 8.31132C9 11.797 11.8551 14.6226 15.377 14.6226Z" fill="#5E63F1"/>
</g>
<defs>
<clipPath id="clip0_776_1999">
<rect width="52.0034" height="52" fill="white"/>
</clipPath>
</defs>
</svg>
