<svg width="52" height="53" viewBox="0 0 52 53" fill="none" xmlns="http://www.w3.org/2000/svg">
<path d="M6.06665 27.0297H14.7333V52.1629H6.06665V27.0297Z" fill="#D1D8DF"/>
<path d="M20.8 17.4961H29.4667V52.1628H20.8V17.4961Z" fill="#D1D8DF"/>
<path d="M35.5332 0.162842H44.1999V52.1628H35.5332V0.162842Z" fill="#28B8F8"/>
<path d="M2.81667 47.8294L19.5 31.7292L25.9582 38.1877C26.4866 38.7157 27.203 39.0124 27.95 39.0124C28.697 39.0124 29.4134 38.7157 29.9418 38.1877L47.1286 23.6009L49.5065 25.9788L52 13.921L40.767 17.2394L43.145 19.6174L27.95 32.2126L21.4918 25.7541C20.9634 25.226 20.247 24.9294 19.5 24.9294C18.753 24.9294 18.0366 25.226 17.5082 25.7541L0 42.0335V47.8294H2.81667Z" fill="#5E63F1"/>
</svg>
