<svg width="50" height="52" viewBox="0 0 50 52" fill="none" xmlns="http://www.w3.org/2000/svg">
<path d="M11.5484 41.2671L12.8782 42.6055H11.4195C8.89439 42.6055 6.84009 40.5511 6.84009 38.026V33.3633H3.79321V38.026C3.79321 42.2311 7.21435 45.6523 11.4195 45.6523H12.8782L11.5484 46.9907L13.7098 49.1383L18.6867 44.1289L13.7098 39.1196L11.5484 41.2671Z" fill="#D1D8DF"/>
<path d="M39.7626 6.44919H38.3039L39.6337 5.1108L37.4723 2.96326L32.4954 7.97262L37.4723 12.9819L39.6337 10.8344L38.3039 9.49606H39.7626C42.2876 9.49606 44.342 11.5505 44.342 14.0755V18.7382H47.3889V14.0755C47.3889 9.87042 43.9678 6.44919 39.7626 6.44919Z" fill="#D1D8DF"/>
<path fill-rule="evenodd" clip-rule="evenodd" d="M33.2462 24.7742L32.6749 28.8919C31.7824 29.2531 30.9523 29.7349 30.2053 30.3192L26.3516 28.755L23.0886 34.4056L26.371 36.9615C26.3053 37.4271 26.2708 37.9036 26.2708 38.3865C26.2708 38.8705 26.3053 39.347 26.371 39.8126L23.0886 42.3685L26.3516 48.0191L30.2053 46.455C30.9523 47.0382 31.7824 47.5211 32.6749 47.8823L33.2463 52L39.772 52.0002L40.3433 47.8824C41.2359 47.5213 42.0659 47.0383 42.8129 46.4552L46.6666 48.0192L49.9296 42.3686L46.6472 39.8128C46.7129 39.3472 46.7474 38.8707 46.7474 38.3867C46.7474 37.9038 46.7129 37.4274 46.6472 36.9617L49.9296 34.4059L46.6666 28.7553L42.8129 30.3194C42.0659 29.7351 41.2359 29.2533 40.3433 28.8922L39.772 24.7744L33.2462 24.7742ZM36.509 35.1527C34.7229 35.1528 33.2753 36.6016 33.2753 38.3866C33.2753 40.1728 34.723 41.6204 36.5093 41.6203C38.2953 41.6202 39.7429 40.1729 39.7429 38.3868C39.7429 36.6018 38.2952 35.1527 36.509 35.1527Z" fill="#5E63F1"/>
<path fill-rule="evenodd" clip-rule="evenodd" d="M10.4151 0H17.0602L17.6421 4.19321C18.5507 4.56107 19.3962 5.05253 20.157 5.64718L24.0823 4.05468L27.4049 9.8085L24.0628 12.4116C24.1281 12.8859 24.1636 13.3706 24.1636 13.8633C24.1636 14.356 24.1282 14.8406 24.0629 15.3147L27.405 17.9179L24.0824 23.6717L20.1571 22.0792C19.3963 22.6738 18.5508 23.1654 17.6422 23.5331L17.0602 27.7266H10.4151L9.83311 23.5334C8.92341 23.1655 8.07902 22.674 7.31822 22.0794L3.39293 23.6719L0.0703125 17.9181L3.41243 15.3149C3.34591 14.8406 3.31158 14.356 3.31158 13.8633C3.31158 13.3706 3.34601 12.8859 3.41243 12.4116L0.0703125 9.8085L3.39283 4.05488L7.31812 5.64738C8.07892 5.05273 8.92331 4.56117 9.83301 4.19341L10.4151 0ZM13.7375 10.4261C11.8391 10.4262 10.3005 11.9648 10.3005 13.8633C10.3005 15.7617 11.8392 17.3004 13.7375 17.3005M13.7375 10.4261C15.636 10.4262 17.1747 11.9648 17.1747 13.8633C17.1747 15.7617 15.636 17.3004 13.7375 17.3005" fill="#28B8F8"/>
</svg>
