<svg width="52" height="52" viewBox="0 0 52 52" fill="none" xmlns="http://www.w3.org/2000/svg">
<g clip-path="url(#clip0_776_1983)">
<path d="M13.0306 8.70229L28.1978 23.8696L26.1513 26.0887L24.1045 28.3509L16.0899 20.3364L8.78638 13.076C8.74322 13.0328 8.74322 12.9897 8.74322 12.9897L7.04114 7.32349L7.4936 7.43114L13.0306 8.70229Z" fill="#5E63F1"/>
<path d="M28.1981 28.1358L28.1766 28.1574C24.7509 31.7121 25.6128 36.3228 28.1551 38.865L39.006 49.7619C41.9791 52.735 46.7835 52.7566 49.7783 49.7619C52.7299 46.8103 52.7514 41.9627 49.7783 38.9896L38.9274 28.0927C36.3635 25.572 31.7529 24.7101 28.1981 28.1358Z" fill="#5E63F1"/>
<path d="M34 34L45 45" stroke="#28B8F8" stroke-width="4" stroke-linecap="round"/>
<path d="M14.2594 5.96681C14.755 6.28988 14.798 6.93622 14.4102 7.32398L7.36503 14.3691C6.97727 14.7569 6.33093 14.7139 6.05082 14.2184L0.213841 4.94103C-0.130861 4.33785 -0.0662674 3.58375 0.47252 3.08813L3.07931 0.481336C3.57484 -0.0572475 4.35046 -0.143372 4.93211 0.222861L14.2594 5.96681Z" fill="#D1D8DF"/>
<path d="M49.3197 15.6008C47.6135 17.3071 45.2673 18.2821 42.8603 18.2821C41.9158 18.2821 41.3674 18.1601 40.4534 18.0077L18.0068 40.4532L18.1286 41.2453C19.1341 46.8819 14.8076 52.0007 9.14031 52.0007C8.22625 52.0007 7.34276 51.8789 6.48954 51.6048C5.88017 51.4218 5.66699 50.6298 6.12391 50.1727L9.16062 47.1563V42.8601H4.84423L1.82784 45.8767C1.37071 46.3336 0.578523 46.1203 0.395711 45.5111C-0.579286 42.3117 0.273938 38.808 2.68086 36.4007C4.3871 34.6945 6.73329 33.7195 9.14021 33.7195C10.0847 33.7195 10.6332 33.8415 11.5473 33.9938L33.994 11.5485L33.872 10.7563C33.3541 7.80095 34.2986 4.78455 36.401 2.68222C38.1072 0.945504 40.4229 0.000976562 42.8603 0.000976562C43.7744 0.000976562 44.6581 0.12275 45.5111 0.397069C46.1205 0.579881 46.3339 1.37207 45.8767 1.82899L42.84 4.84539V9.14146H47.1563L50.1729 6.12507C50.6299 5.66794 51.422 5.88122 51.6048 6.49069C52.5798 9.6899 51.7267 13.1937 49.3197 15.6008Z" fill="#D1D8DF"/>
</g>
<defs>
<clipPath id="clip0_776_1983">
<rect width="52" height="52" fill="white"/>
</clipPath>
</defs>
</svg>
